<?xml version="1.0" encoding="utf-8"?>
<!-- Generator: Adobe Illustrator 23.0.0, SVG Export Plug-In . SVG Version: 6.00 Build 0)  -->
<svg version="1.1" id="레이어_1" xmlns="http://www.w3.org/2000/svg" xmlns:xlink="http://www.w3.org/1999/xlink" x="0px"
	 y="0px" viewBox="0 0 138 24" style="enable-background:new 0 0 138 24;" xml:space="preserve">
<style type="text/css">
	.st0{fill:none;stroke:#213429;stroke-miterlimit:10;}
	.st1{fill:#213429;}
</style>
<g>
	<path class="st0" d="M34.36,16c21.03,9.53,47.97,9.53,69,0"/>
</g>
<polyline class="st0" points="100.91,14.6 103.64,15.85 102.38,18.58 "/>
<path class="st1" d="M58.84,11.08c-2.23,0-4.12-0.1-5.67-0.29c-1.55-0.2-2.81-0.46-3.78-0.8c-0.97-0.34-1.67-0.72-2.11-1.16
	c-0.44-0.44-0.65-0.9-0.65-1.39l0-4.21l42.15-0.01l0,3.98c0,0.49-0.2,0.95-0.6,1.39c-0.4,0.44-1.09,0.82-2.06,1.15
	c-0.97,0.32-2.23,0.58-3.8,0.77c-1.57,0.19-3.51,0.29-5.84,0.29c-1.68,0-3.21-0.09-4.58-0.27c-1.37-0.18-2.4-0.41-3.08-0.69
	c-0.78,0.38-2.07,0.69-3.9,0.91C63.1,10.97,61.07,11.08,58.84,11.08z M59.42,8.88c1.74,0,3.04-0.15,3.9-0.44
	c0.85-0.29,1.28-0.66,1.28-1.1l0-1.94l-10.22,0l0,1.94c0,0.21,0.1,0.4,0.31,0.59c0.21,0.18,0.53,0.35,0.95,0.49
	c0.42,0.14,0.95,0.25,1.57,0.34C57.85,8.83,58.58,8.88,59.42,8.88z M76.63,8.61c0.97,0,1.74-0.05,2.33-0.14
	c0.58-0.09,1.02-0.22,1.33-0.39c0.31-0.17,0.51-0.37,0.61-0.59c0.1-0.23,0.15-0.47,0.15-0.74l0-1.36l-8.67,0v1.36
	c0,0.26,0.05,0.51,0.15,0.74c0.1,0.23,0.3,0.43,0.61,0.59c0.31,0.17,0.73,0.3,1.29,0.39C74.95,8.56,75.69,8.61,76.63,8.61z"/>
<path class="st1" d="M8.25,9.29c0,0.55-0.1,1.02-0.29,1.4c-0.2,0.38-0.46,0.7-0.8,0.94c-0.34,0.24-0.72,0.41-1.16,0.52
	c-0.44,0.11-0.9,0.16-1.39,0.16H0.39V1.87h3.98c0.49,0,0.95,0.05,1.39,0.15c0.44,0.1,0.82,0.27,1.15,0.51
	c0.32,0.24,0.58,0.55,0.77,0.94s0.29,0.87,0.29,1.45c0,0.42-0.09,0.79-0.27,1.13C7.52,6.39,7.29,6.65,7.01,6.82
	C7.4,7.01,7.7,7.33,7.92,7.78C8.14,8.23,8.25,8.74,8.25,9.29z M5.78,4.88c0-0.24-0.05-0.43-0.14-0.58C5.55,4.16,5.42,4.06,5.25,3.98
	S4.88,3.85,4.65,3.83C4.43,3.8,4.18,3.79,3.92,3.79H2.56v2.15h1.36c0.26,0,0.51-0.01,0.74-0.04s0.43-0.07,0.59-0.15
	c0.17-0.08,0.3-0.18,0.39-0.32C5.73,5.3,5.78,5.12,5.78,4.88z M6.04,9.14c0-0.43-0.15-0.75-0.44-0.97C5.31,7.97,4.94,7.86,4.5,7.86
	H2.56v2.53H4.5c0.21,0,0.4-0.03,0.59-0.08c0.18-0.05,0.35-0.13,0.49-0.23c0.14-0.1,0.25-0.23,0.34-0.39C6,9.54,6.04,9.35,6.04,9.14z
	"/>
<path class="st1" d="M16.67,7.48c0,0.12-0.01,0.28-0.02,0.47c-0.01,0.2-0.03,0.38-0.04,0.56h-5.17c0.11,0.38,0.3,0.7,0.56,0.94
	c0.26,0.24,0.6,0.36,1,0.36c0.13,0,0.26-0.01,0.41-0.03c0.14-0.02,0.28-0.06,0.41-0.11c0.13-0.05,0.25-0.13,0.36-0.23
	c0.11-0.1,0.19-0.23,0.25-0.4h2.11c-0.07,0.47-0.22,0.88-0.45,1.21c-0.23,0.34-0.5,0.62-0.83,0.84c-0.32,0.22-0.68,0.39-1.07,0.49
	S13.4,11.74,13,11.74c-0.66,0-1.23-0.1-1.71-0.3c-0.48-0.2-0.88-0.48-1.2-0.83c-0.32-0.36-0.55-0.78-0.71-1.28
	c-0.16-0.5-0.23-1.04-0.23-1.63c0-0.59,0.08-1.14,0.23-1.63c0.16-0.5,0.39-0.92,0.71-1.28c0.32-0.36,0.72-0.64,1.2-0.84
	c0.48-0.2,1.05-0.3,1.71-0.3c0.61,0,1.14,0.1,1.6,0.29c0.46,0.2,0.84,0.46,1.15,0.8c0.31,0.34,0.54,0.74,0.69,1.21
	C16.6,6.41,16.67,6.92,16.67,7.48z M11.51,6.66h2.88c-0.06-0.3-0.21-0.55-0.46-0.77s-0.56-0.33-0.95-0.33c-0.36,0-0.66,0.1-0.91,0.3
	C11.83,6.06,11.64,6.32,11.51,6.66z"/>
<path class="st1" d="M25.18,10.17c0,0.56-0.07,1.08-0.22,1.56s-0.38,0.9-0.7,1.25c-0.32,0.35-0.73,0.63-1.24,0.83
	c-0.51,0.2-1.13,0.3-1.85,0.3c-0.42,0-0.82-0.05-1.22-0.14s-0.76-0.25-1.09-0.47c-0.33-0.22-0.61-0.51-0.85-0.87
	c-0.24-0.36-0.4-0.8-0.49-1.33h2.23c0.08,0.34,0.25,0.57,0.52,0.7c0.27,0.13,0.57,0.2,0.89,0.2c0.46,0,0.83-0.12,1.13-0.37
	s0.5-0.59,0.62-1.02c-0.23,0.11-0.49,0.2-0.76,0.26s-0.57,0.09-0.89,0.09c-0.66,0-1.24-0.1-1.73-0.3c-0.49-0.2-0.89-0.48-1.21-0.83
	s-0.56-0.78-0.71-1.28s-0.23-1.04-0.23-1.63c0-0.59,0.08-1.14,0.23-1.63c0.15-0.5,0.39-0.92,0.71-1.28
	c0.32-0.36,0.72-0.64,1.21-0.84c0.49-0.2,1.06-0.3,1.73-0.3c0.34,0,0.66,0.04,0.95,0.11s0.57,0.17,0.82,0.3V3.17h2.14V10.17z
	 M23,7.1c0-0.3-0.04-0.57-0.12-0.83c-0.08-0.26-0.19-0.49-0.34-0.68s-0.33-0.34-0.54-0.46c-0.21-0.11-0.45-0.17-0.73-0.17
	c-0.26,0-0.5,0.06-0.71,0.17c-0.21,0.11-0.39,0.26-0.53,0.46c-0.14,0.19-0.25,0.42-0.33,0.68c-0.08,0.26-0.11,0.54-0.11,0.83
	s0.04,0.57,0.11,0.83c0.08,0.26,0.19,0.48,0.33,0.67c0.14,0.19,0.32,0.34,0.53,0.45S21,9.21,21.27,9.21c0.27,0,0.51-0.05,0.73-0.16
	s0.39-0.26,0.54-0.45c0.15-0.19,0.26-0.42,0.34-0.67C22.96,7.67,23,7.4,23,7.1z"/>
<path class="st1" d="M28.92,2.37h-2.3V0.19h2.3V2.37z M28.85,11.03H26.7V3.29h2.15V11.03z"/>
<path class="st1" d="M37.48,11.38h-2.15V6.81c0-0.2-0.02-0.39-0.07-0.57c-0.05-0.18-0.12-0.34-0.23-0.47
	c-0.1-0.14-0.24-0.24-0.4-0.32s-0.37-0.12-0.61-0.12c-0.22,0-0.42,0.05-0.61,0.15c-0.19,0.1-0.35,0.23-0.48,0.4
	c-0.13,0.16-0.24,0.35-0.31,0.57c-0.08,0.22-0.11,0.44-0.11,0.67v4.27h-2.15V3.52h2.15v0.36c0.21-0.14,0.48-0.25,0.81-0.34
	c0.33-0.09,0.7-0.14,1.1-0.14c0.5,0,0.93,0.08,1.31,0.23c0.38,0.16,0.7,0.36,0.96,0.62c0.26,0.26,0.46,0.56,0.59,0.91
	c0.13,0.35,0.2,0.71,0.2,1.1V11.38z"/>
<path class="st1" d="M104.77,0.59l-3.68,10.44h-2.08L95.35,0.59h2.27l2.44,7.21l2.44-7.21H104.77z"/>
<path class="st1" d="M112.17,6.19c0,0.12-0.01,0.28-0.02,0.47c-0.01,0.2-0.03,0.38-0.04,0.56h-5.17c0.11,0.38,0.3,0.7,0.56,0.94
	c0.26,0.24,0.6,0.36,1,0.36c0.13,0,0.26-0.01,0.41-0.03c0.14-0.02,0.28-0.06,0.41-0.11c0.13-0.05,0.25-0.13,0.36-0.23
	c0.11-0.1,0.19-0.23,0.25-0.4h2.11c-0.07,0.47-0.22,0.88-0.45,1.21c-0.23,0.34-0.5,0.62-0.83,0.84c-0.32,0.22-0.68,0.39-1.07,0.49
	s-0.79,0.16-1.19,0.16c-0.66,0-1.23-0.1-1.71-0.3c-0.48-0.2-0.88-0.48-1.2-0.83c-0.32-0.36-0.55-0.78-0.71-1.28
	c-0.16-0.5-0.23-1.04-0.23-1.63c0-0.59,0.08-1.14,0.23-1.63c0.16-0.5,0.39-0.92,0.71-1.28c0.32-0.36,0.72-0.64,1.2-0.84
	c0.48-0.2,1.05-0.3,1.71-0.3c0.61,0,1.14,0.1,1.6,0.29c0.46,0.2,0.84,0.46,1.15,0.8c0.31,0.34,0.54,0.74,0.69,1.21
	C112.1,5.13,112.17,5.64,112.17,6.19z M107.01,5.37h2.88c-0.06-0.3-0.21-0.55-0.46-0.77s-0.56-0.33-0.95-0.33
	c-0.36,0-0.66,0.1-0.91,0.3C107.33,4.77,107.14,5.04,107.01,5.37z"/>
<path class="st1" d="M120.68,9.78c0,0.56-0.07,1.08-0.22,1.56s-0.38,0.9-0.7,1.25c-0.32,0.35-0.73,0.63-1.24,0.83
	c-0.51,0.2-1.13,0.3-1.85,0.3c-0.42,0-0.82-0.05-1.22-0.14s-0.76-0.25-1.09-0.47c-0.33-0.22-0.61-0.51-0.85-0.87
	c-0.24-0.36-0.4-0.8-0.49-1.33h2.23c0.08,0.34,0.25,0.57,0.52,0.7c0.27,0.13,0.57,0.2,0.89,0.2c0.46,0,0.83-0.12,1.13-0.37
	s0.5-0.59,0.62-1.02c-0.23,0.11-0.49,0.2-0.76,0.26s-0.57,0.09-0.89,0.09c-0.66,0-1.24-0.1-1.73-0.3c-0.49-0.2-0.89-0.48-1.21-0.83
	s-0.56-0.78-0.71-1.28s-0.23-1.04-0.23-1.63c0-0.59,0.08-1.14,0.23-1.63c0.15-0.5,0.39-0.92,0.71-1.28
	c0.32-0.36,0.72-0.64,1.21-0.84c0.49-0.2,1.06-0.3,1.73-0.3c0.34,0,0.66,0.04,0.95,0.11s0.57,0.17,0.82,0.3V2.77h2.14V9.78z
	 M118.5,6.71c0-0.3-0.04-0.57-0.12-0.83c-0.08-0.26-0.19-0.49-0.34-0.68s-0.33-0.34-0.54-0.46c-0.21-0.11-0.45-0.17-0.73-0.17
	c-0.26,0-0.5,0.06-0.71,0.17c-0.21,0.11-0.39,0.26-0.53,0.46c-0.14,0.19-0.25,0.42-0.33,0.68c-0.08,0.26-0.11,0.54-0.11,0.83
	s0.04,0.57,0.11,0.83c0.08,0.26,0.19,0.48,0.33,0.67c0.14,0.19,0.32,0.34,0.53,0.45s0.45,0.16,0.71,0.16c0.27,0,0.51-0.05,0.73-0.16
	s0.39-0.26,0.54-0.45c0.15-0.19,0.26-0.42,0.34-0.67C118.46,7.28,118.5,7,118.5,6.71z"/>
<path class="st1" d="M129.1,10.63h-2.2v-0.38c-0.21,0.14-0.49,0.25-0.83,0.35c-0.35,0.1-0.72,0.15-1.12,0.15
	c-0.42,0-0.83-0.05-1.22-0.14c-0.39-0.09-0.73-0.24-1.02-0.43c-0.29-0.2-0.52-0.45-0.7-0.75c-0.17-0.3-0.26-0.66-0.26-1.08
	c0-0.58,0.12-1.06,0.36-1.44c0.24-0.38,0.55-0.67,0.94-0.89c0.38-0.22,0.82-0.37,1.3-0.45c0.48-0.08,0.97-0.13,1.46-0.13h1.06
	c-0.05-0.26-0.18-0.48-0.38-0.64c-0.21-0.16-0.52-0.24-0.95-0.24c-0.14,0-0.28,0.01-0.42,0.03c-0.14,0.02-0.26,0.06-0.37,0.12
	c-0.11,0.06-0.21,0.15-0.28,0.26c-0.08,0.11-0.13,0.26-0.16,0.43h-2.23c0.06-0.5,0.2-0.93,0.4-1.28c0.2-0.35,0.46-0.63,0.76-0.85
	c0.3-0.22,0.65-0.38,1.03-0.48c0.38-0.1,0.79-0.15,1.21-0.15c0.48,0,0.94,0.05,1.37,0.14c0.43,0.09,0.81,0.25,1.14,0.47
	c0.33,0.22,0.59,0.52,0.78,0.88c0.19,0.36,0.29,0.82,0.29,1.36v3c0,0.14,0,0.38,0.01,0.72C129.07,9.56,129.08,10.03,129.1,10.63z
	 M126.91,7.69V7.3h-1.19c-0.22,0-0.43,0.02-0.64,0.05c-0.21,0.04-0.4,0.09-0.56,0.16c-0.16,0.07-0.3,0.16-0.4,0.28
	c-0.1,0.11-0.16,0.24-0.16,0.4c0,0.21,0.1,0.36,0.29,0.47c0.19,0.1,0.43,0.16,0.71,0.16c0.23,0,0.46-0.03,0.7-0.1
	c0.23-0.06,0.44-0.15,0.63-0.25s0.34-0.22,0.46-0.36C126.85,7.97,126.91,7.83,126.91,7.69z"/>
<path class="st1" d="M137.61,10.09h-2.15V5.52c0-0.2-0.02-0.39-0.07-0.57c-0.05-0.18-0.12-0.34-0.23-0.47
	c-0.1-0.14-0.24-0.24-0.4-0.32s-0.37-0.12-0.61-0.12c-0.22,0-0.42,0.05-0.61,0.15c-0.19,0.1-0.35,0.23-0.48,0.4
	c-0.13,0.16-0.24,0.35-0.31,0.57c-0.08,0.22-0.11,0.44-0.11,0.67v4.27h-2.15V2.23h2.15v0.36c0.21-0.14,0.48-0.25,0.81-0.34
	c0.33-0.09,0.7-0.14,1.1-0.14c0.5,0,0.93,0.08,1.31,0.23c0.38,0.16,0.7,0.36,0.96,0.62c0.26,0.26,0.46,0.56,0.59,0.91
	c0.13,0.35,0.2,0.71,0.2,1.1V10.09z"/>
</svg>
